name p12_grf_mean_speed_1.0
datacolumns 13
datarows 34
range 0.0000000000 0.3300000000
endheader
time	grf_x_l_mean	grf_x_l_var	grf_y_l_mean	grf_y_l_var	grf_z_l_mean	grf_z_l_var	grf_x_r_mean	grf_x_r_var	grf_y_r_mean	grf_y_r_var	grf_z_r_mean	grf_z_r_var
0.0000000000	51.5935853259	1.0000000000	552.7748510329	1.0000000000	0.0000000000	0.0000000000	8.9576857050	1.0000000000	10.6201754764	1.0000000000	0.0000000000	0.0000000000
0.0100000000	59.3289588042	1.0000000000	550.1617079292	1.0000000000	0.0000000000	0.0000000000	16.6179685493	1.0000000000	30.3754604893	1.0000000000	0.0000000000	0.0000000000
0.0200000000	67.8391903043	1.0000000000	540.3593215626	1.0000000000	0.0000000000	0.0000000000	23.4196767343	1.0000000000	59.5069069557	1.0000000000	0.0000000000	0.0000000000
0.0300000000	76.2043426954	1.0000000000	522.3073628711	1.0000000000	0.0000000000	0.0000000000	24.3056469397	1.0000000000	94.6434399345	1.0000000000	0.0000000000	0.0000000000
0.0400000000	83.1835688138	1.0000000000	495.0012600390	1.0000000000	0.0000000000	0.0000000000	18.3126022291	1.0000000000	131.7605245636	1.0000000000	0.0000000000	0.0000000000
0.0500000000	88.3200856437	1.0000000000	458.2566971786	1.0000000000	0.0000000000	0.0000000000	9.0481315010	1.0000000000	167.3274006133	1.0000000000	0.0000000000	0.0000000000
0.0600000000	90.3973642251	1.0000000000	412.4123977788	1.0000000000	0.0000000000	0.0000000000	-1.2842868101	1.0000000000	198.8355797925	1.0000000000	0.0000000000	0.0000000000
0.0700000000	87.8446081792	1.0000000000	358.4443184605	1.0000000000	0.0000000000	0.0000000000	-11.9956307288	1.0000000000	226.7870946635	1.0000000000	0.0000000000	0.0000000000
0.0800000000	80.5427733163	1.0000000000	299.2051557668	1.0000000000	0.0000000000	0.0000000000	-21.6459087220	1.0000000000	254.2036392940	1.0000000000	0.0000000000	0.0000000000
0.0900000000	68.5759770900	1.0000000000	238.7490019454	1.0000000000	0.0000000000	0.0000000000	-30.1167748962	1.0000000000	284.2349613947	1.0000000000	0.0000000000	0.0000000000
0.1000000000	52.8324596253	1.0000000000	180.8906464829	1.0000000000	0.0000000000	0.0000000000	-38.0548688366	1.0000000000	317.9624338847	1.0000000000	0.0000000000	0.0000000000
0.1100000000	36.3171459419	1.0000000000	129.3257899376	1.0000000000	0.0000000000	0.0000000000	-44.5664204187	1.0000000000	354.9779493592	1.0000000000	0.0000000000	0.0000000000
0.1200000000	21.4082507228	1.0000000000	87.0106981066	1.0000000000	0.0000000000	0.0000000000	-49.5061284674	1.0000000000	394.6754612400	1.0000000000	0.0000000000	0.0000000000
0.1300000000	9.7917319169	1.0000000000	54.7110065161	1.0000000000	0.0000000000	0.0000000000	-53.3871198984	1.0000000000	435.3335366135	1.0000000000	0.0000000000	0.0000000000
0.1400000000	2.7252245503	1.0000000000	31.2727190827	1.0000000000	0.0000000000	0.0000000000	-55.6711220429	1.0000000000	474.1996978411	1.0000000000	0.0000000000	0.0000000000
0.1500000000	-0.6969706553	1.0000000000	15.2810109693	1.0000000000	0.0000000000	0.0000000000	-56.6091848064	1.0000000000	509.0064889397	1.0000000000	0.0000000000	0.0000000000
0.1600000000	-1.9852924476	1.0000000000	5.6519028923	1.0000000000	0.0000000000	0.0000000000	-56.8068611592	1.0000000000	538.1281236513	1.0000000000	0.0000000000	0.0000000000
0.1700000000	-1.9137987551	1.0000000000	0.8351674623	1.0000000000	0.0000000000	0.0000000000	-56.1262890336	1.0000000000	560.3175480375	1.0000000000	0.0000000000	0.0000000000
0.1800000000	0.0000000000	1.0000000000	0.0000000000	1.0000000000	0.0000000000	0.0000000000	-54.7929952275	1.0000000000	574.9550939375	1.0000000000	0.0000000000	0.0000000000
0.1900000000	0.0000000000	1.0000000000	0.0000000000	1.0000000000	0.0000000000	0.0000000000	-53.1159618699	1.0000000000	581.7388321929	1.0000000000	0.0000000000	0.0000000000
0.2000000000	0.0000000000	1.0000000000	0.0000000000	1.0000000000	0.0000000000	0.0000000000	-50.8058143443	1.0000000000	580.8962915173	1.0000000000	0.0000000000	0.0000000000
0.2100000000	0.0000000000	1.0000000000	0.0000000000	1.0000000000	0.0000000000	0.0000000000	-48.0303144048	1.0000000000	573.4514950005	1.0000000000	0.0000000000	0.0000000000
0.2200000000	-0.0879258055	1.0000000000	0.3426298202	1.0000000000	0.0000000000	0.0000000000	-44.9050169828	1.0000000000	560.7358649179	1.0000000000	0.0000000000	0.0000000000
0.2300000000	-0.0013865289	1.0000000000	0.5356002604	1.0000000000	0.0000000000	0.0000000000	-41.1615459178	1.0000000000	544.1054584402	1.0000000000	0.0000000000	0.0000000000
0.2400000000	0.0507834442	1.0000000000	0.5825568805	1.0000000000	0.0000000000	0.0000000000	-37.0505972068	1.0000000000	524.9522052787	1.0000000000	0.0000000000	0.0000000000
0.2500000000	0.0064792998	1.0000000000	0.5251343118	1.0000000000	0.0000000000	0.0000000000	-32.8203792967	1.0000000000	504.6028300895	1.0000000000	0.0000000000	0.0000000000
0.2600000000	0.0498290029	1.0000000000	0.4355969573	1.0000000000	0.0000000000	0.0000000000	-28.5120587244	1.0000000000	484.1513470245	1.0000000000	0.0000000000	0.0000000000
0.2700000000	0.0913337188	1.0000000000	0.3640753419	1.0000000000	0.0000000000	0.0000000000	-24.3600246505	1.0000000000	464.3850193612	1.0000000000	0.0000000000	0.0000000000
0.2800000000	0.0510442748	1.0000000000	0.3029535752	1.0000000000	0.0000000000	0.0000000000	-20.4931302408	1.0000000000	445.9948029567	1.0000000000	0.0000000000	0.0000000000
0.2900000000	0.0495661876	1.0000000000	0.2405998613	1.0000000000	0.0000000000	0.0000000000	-16.9532618730	1.0000000000	429.6305721850	1.0000000000	0.0000000000	0.0000000000
0.3000000000	0.0777684426	1.0000000000	0.1967111424	1.0000000000	0.0000000000	0.0000000000	-13.8942119282	1.0000000000	415.6257499986	1.0000000000	0.0000000000	0.0000000000
0.3100000000	0.0661766598	1.0000000000	0.1753380282	1.0000000000	0.0000000000	0.0000000000	-11.1369921431	1.0000000000	404.2168533187	1.0000000000	0.0000000000	0.0000000000
0.3200000000	0.0586171674	1.0000000000	0.1530483431	1.0000000000	0.0000000000	0.0000000000	-8.5515685207	1.0000000000	395.7775522297	1.0000000000	0.0000000000	0.0000000000
0.3300000000	0.0563951184	1.0000000000	0.1330771201	1.0000000000	0.0000000000	0.0000000000	-6.1389989378	1.0000000000	390.4421040469	1.0000000000	0.0000000000	0.0000000000
